<svg class="icon" viewBox="0 0 1024 1024" xmlns="http://www.w3.org/2000/svg" width="64" height="64"><path d="M896 896s0-52.8-4.4-80.4c-3.6-21.8-33.8-50.6-162.2-97.8C603 671.4 610.8 694 610.8 608.6c0-55.4 28.2-23.2 46.2-128.4 7-41.4 12.6-13.8 27.8-80.2 8-34.8-5.4-37.4-3.8-54 1.6-16.6 3.2-31.4 6.2-65.4 3.6-42-35.4-152.6-175.2-152.6-139.8 0-178.8 110.6-175 152.8 3 33.8 4.6 48.8 6.2 65.4 1.6 16.6-11.8 19.2-3.8 54 15.2 66.2 20.8 38.6 27.8 80.2 18 105.2 46.2 73 46.2 128.4 0 85.6 7.8 63-118.6 109.2-128.4 47-158.8 76-162.2 97.8C128 843.2 128 896 128 896h768z" fill="#fff"/></svg>